<mxfile host="app.diagrams.net" modified="2022-06-24T20:26:23.146Z" agent="5.0 (Windows NT 10.0; Win64; x64) AppleWebKit/537.36 (KHTML, like Gecko) Chrome/102.0.5005.124 Safari/537.36 Edg/102.0.1245.44" etag="H0-6mKSXvc1HVs51n5HM" version="20.0.3" type="github">
  <diagram id="8eAx-9GM4uaWxtmY6Ufz" name="Diagrama fisico">
    <mxGraphModel dx="868" dy="482" grid="1" gridSize="10" guides="1" tooltips="1" connect="1" arrows="1" fold="1" page="1" pageScale="1" pageWidth="827" pageHeight="1169" math="0" shadow="0">
      <root>
        <mxCell id="0" />
        <mxCell id="1" parent="0" />
        <mxCell id="E7Vxxg4DmYyX0V0PuBKv-5" value="&lt;table border=&quot;1&quot; width=&quot;100%&quot; height=&quot;100%&quot; cellpadding=&quot;4&quot; style=&quot;width:100%;height:100%;border-collapse:collapse;&quot;&gt;&lt;tbody&gt;&lt;tr&gt;&lt;th align=&quot;center&quot;&gt;Users&lt;/th&gt;&lt;/tr&gt;&lt;tr&gt;&lt;td align=&quot;center&quot;&gt;Id: INTEGER (PK)&lt;/td&gt;&lt;/tr&gt;&lt;tr&gt;&lt;td align=&quot;center&quot;&gt;Login: CHARVAR(30) NN&lt;br&gt;Password: CHARVAR(30) NN&lt;br&gt;Nickname: CHARVAR(30) NN&lt;br&gt;Email: CHARVAR(30) NN UNIQUE&lt;/td&gt;&lt;/tr&gt;&lt;/tbody&gt;&lt;/table&gt;" style="text;html=1;strokeColor=none;fillColor=none;overflow=fill;" parent="1" vertex="1">
          <mxGeometry x="10" y="20" width="200" height="140" as="geometry" />
        </mxCell>
        <mxCell id="E7Vxxg4DmYyX0V0PuBKv-6" value="&lt;table border=&quot;1&quot; width=&quot;100%&quot; height=&quot;100%&quot; cellpadding=&quot;4&quot; style=&quot;width:100%;height:100%;border-collapse:collapse;&quot;&gt;&lt;tbody&gt;&lt;tr&gt;&lt;th align=&quot;center&quot;&gt;POSTS&lt;/th&gt;&lt;/tr&gt;&lt;tr&gt;&lt;td align=&quot;center&quot;&gt;Id: INTEGER (PK)&lt;/td&gt;&lt;/tr&gt;&lt;tr&gt;&lt;td align=&quot;center&quot;&gt;Title: CHARVAR(150)&amp;nbsp;&lt;br&gt;Publication_date: TIMESTAMP&lt;br&gt;Contents: TEXT&lt;br&gt;Email: CHAR(8) CHECK(IN(&#39;active&#39;,&#39;inactive&#39;))&lt;br&gt;User_id: INTEGER (FK)&lt;br&gt;Category_id: INTEGER (FK)&lt;br&gt;Tag_id: INTEGER (FK)&lt;/td&gt;&lt;/tr&gt;&lt;/tbody&gt;&lt;/table&gt;" style="text;html=1;strokeColor=none;fillColor=none;overflow=fill;" parent="1" vertex="1">
          <mxGeometry x="280" y="200" width="260" height="160" as="geometry" />
        </mxCell>
        <mxCell id="E7Vxxg4DmYyX0V0PuBKv-7" value="&lt;table border=&quot;1&quot; width=&quot;100%&quot; height=&quot;100%&quot; cellpadding=&quot;4&quot; style=&quot;width:100%;height:100%;border-collapse:collapse;&quot;&gt;&lt;tbody&gt;&lt;tr&gt;&lt;th align=&quot;center&quot;&gt;Comments&lt;/th&gt;&lt;/tr&gt;&lt;tr&gt;&lt;td align=&quot;center&quot;&gt;Id: INTEGER (PK)&lt;/td&gt;&lt;/tr&gt;&lt;tr&gt;&lt;td align=&quot;center&quot;&gt;&lt;br&gt;Comment: TEXT&lt;br&gt;User_id: INTEGER (FK)&lt;br&gt;Post_id: INTEGER (FK)&lt;br&gt;&lt;br&gt;&lt;/td&gt;&lt;/tr&gt;&lt;/tbody&gt;&lt;/table&gt;" style="text;html=1;strokeColor=none;fillColor=none;overflow=fill;" parent="1" vertex="1">
          <mxGeometry x="610" y="27.5" width="140" height="132.5" as="geometry" />
        </mxCell>
        <mxCell id="E7Vxxg4DmYyX0V0PuBKv-8" value="&lt;table border=&quot;1&quot; width=&quot;100%&quot; height=&quot;100%&quot; cellpadding=&quot;4&quot; style=&quot;width:100%;height:100%;border-collapse:collapse;&quot;&gt;&lt;tbody&gt;&lt;tr&gt;&lt;th align=&quot;center&quot;&gt;Categories&lt;/th&gt;&lt;/tr&gt;&lt;tr&gt;&lt;td align=&quot;center&quot;&gt;Id: INTEGER (PK)&lt;/td&gt;&lt;/tr&gt;&lt;tr&gt;&lt;td align=&quot;center&quot;&gt;&lt;br&gt;Category: CHARVAR(30)&lt;br&gt;&lt;br&gt;&lt;/td&gt;&lt;/tr&gt;&lt;/tbody&gt;&lt;/table&gt;" style="text;html=1;strokeColor=none;fillColor=none;overflow=fill;" parent="1" vertex="1">
          <mxGeometry x="40" y="380" width="160" height="110" as="geometry" />
        </mxCell>
        <mxCell id="E7Vxxg4DmYyX0V0PuBKv-9" value="&lt;table border=&quot;1&quot; width=&quot;100%&quot; height=&quot;100%&quot; cellpadding=&quot;4&quot; style=&quot;width:100%;height:100%;border-collapse:collapse;&quot;&gt;&lt;tbody&gt;&lt;tr&gt;&lt;th align=&quot;center&quot;&gt;Tags&lt;/th&gt;&lt;/tr&gt;&lt;tr&gt;&lt;td align=&quot;center&quot;&gt;Id: INTEGER (PK)&lt;/td&gt;&lt;/tr&gt;&lt;tr&gt;&lt;td align=&quot;center&quot;&gt;&lt;br&gt;Tag: CHARVAR(30)&lt;br&gt;&lt;br&gt;&lt;/td&gt;&lt;/tr&gt;&lt;/tbody&gt;&lt;/table&gt;" style="text;html=1;strokeColor=none;fillColor=none;overflow=fill;" parent="1" vertex="1">
          <mxGeometry x="610" y="350" width="160" height="110" as="geometry" />
        </mxCell>
        <mxCell id="E7Vxxg4DmYyX0V0PuBKv-12" value="" style="edgeStyle=orthogonalEdgeStyle;fontSize=12;html=1;endArrow=ERoneToMany;startArrow=ERone;rounded=0;entryX=-0.015;entryY=0.571;entryDx=0;entryDy=0;entryPerimeter=0;exitX=1.005;exitY=0.814;exitDx=0;exitDy=0;exitPerimeter=0;dashed=1;startFill=0;" parent="1" source="E7Vxxg4DmYyX0V0PuBKv-5" target="E7Vxxg4DmYyX0V0PuBKv-6" edge="1">
          <mxGeometry width="100" height="100" relative="1" as="geometry">
            <mxPoint x="80" y="300" as="sourcePoint" />
            <mxPoint x="180" y="200" as="targetPoint" />
            <Array as="points">
              <mxPoint x="240" y="134" />
              <mxPoint x="240" y="291" />
            </Array>
          </mxGeometry>
        </mxCell>
        <mxCell id="E7Vxxg4DmYyX0V0PuBKv-14" value="" style="fontSize=12;html=1;endArrow=ERoneToMany;startArrow=ERone;rounded=0;entryX=0;entryY=0.25;entryDx=0;entryDy=0;exitX=1.01;exitY=0.45;exitDx=0;exitDy=0;exitPerimeter=0;dashed=1;startFill=0;" parent="1" target="E7Vxxg4DmYyX0V0PuBKv-7" edge="1">
          <mxGeometry width="100" height="100" relative="1" as="geometry">
            <mxPoint x="210" y="60" as="sourcePoint" />
            <mxPoint x="274.0999999999999" y="256.94000000000005" as="targetPoint" />
          </mxGeometry>
        </mxCell>
        <mxCell id="E7Vxxg4DmYyX0V0PuBKv-16" value="" style="edgeStyle=orthogonalEdgeStyle;fontSize=12;html=1;endArrow=ERoneToMany;startArrow=ERone;rounded=0;exitX=1.005;exitY=0.814;exitDx=0;exitDy=0;exitPerimeter=0;dashed=1;entryX=0;entryY=0.75;entryDx=0;entryDy=0;startFill=0;" parent="1" target="E7Vxxg4DmYyX0V0PuBKv-7" edge="1">
          <mxGeometry width="100" height="100" relative="1" as="geometry">
            <mxPoint x="540" y="280" as="sourcePoint" />
            <mxPoint x="600" y="120" as="targetPoint" />
          </mxGeometry>
        </mxCell>
        <mxCell id="E7Vxxg4DmYyX0V0PuBKv-17" value="" style="edgeStyle=orthogonalEdgeStyle;fontSize=12;html=1;endArrow=ERoneToMany;startArrow=ERone;rounded=0;exitX=1.005;exitY=0.814;exitDx=0;exitDy=0;exitPerimeter=0;dashed=1;startFill=0;entryX=0.25;entryY=1;entryDx=0;entryDy=0;" parent="1" target="E7Vxxg4DmYyX0V0PuBKv-6" edge="1">
          <mxGeometry width="100" height="100" relative="1" as="geometry">
            <mxPoint x="200" y="420.00000000000006" as="sourcePoint" />
            <mxPoint x="370" y="360" as="targetPoint" />
          </mxGeometry>
        </mxCell>
        <mxCell id="E7Vxxg4DmYyX0V0PuBKv-19" value="" style="edgeStyle=orthogonalEdgeStyle;fontSize=12;html=1;endArrow=ERoneToMany;startArrow=ERone;rounded=0;dashed=1;startFill=0;entryX=0.25;entryY=1;entryDx=0;entryDy=0;exitX=-0.012;exitY=0.655;exitDx=0;exitDy=0;exitPerimeter=0;" parent="1" source="E7Vxxg4DmYyX0V0PuBKv-9" edge="1">
          <mxGeometry width="100" height="100" relative="1" as="geometry">
            <mxPoint x="590" y="420" as="sourcePoint" />
            <mxPoint x="475" y="360" as="targetPoint" />
            <Array as="points">
              <mxPoint x="475" y="422" />
            </Array>
          </mxGeometry>
        </mxCell>
      </root>
    </mxGraphModel>
  </diagram>
</mxfile>
